<svg width="159" height="25" viewBox="0 0 159 25" fill="none" xmlns="http://www.w3.org/2000/svg">
<path d="M9.26239 17.848C9.50902 17.7238 9.60826 17.4232 9.48405 17.1766C9.35985 16.9299 9.05922 16.8307 8.81259 16.9549L9.26239 17.848ZM15.0924 14.0305C14.8388 14.14 14.7221 14.4342 14.8315 14.6878C14.941 14.9413 15.2352 15.0581 15.4887 14.9486L15.0924 14.0305ZM21.8712 12.3794C22.1298 12.2823 22.2607 11.9941 22.1637 11.7356C22.0667 11.477 21.7784 11.3461 21.5199 11.4431L21.8712 12.3794ZM28.0601 9.15239C27.7976 9.23805 27.6542 9.52031 27.7399 9.78283C27.8256 10.0453 28.1078 10.1887 28.3703 10.1031L28.0601 9.15239ZM34.9674 8.10019C35.2332 8.02536 35.388 7.74922 35.3132 7.48341C35.2384 7.2176 34.9622 7.06278 34.6964 7.13761L34.9674 8.10019ZM41.3829 5.39777C41.1143 5.46203 40.9487 5.73183 41.013 6.00039C41.0772 6.26895 41.347 6.43458 41.6156 6.37032L41.3829 5.39777ZM48.3479 4.89866C48.6187 4.84499 48.7948 4.58189 48.7411 4.31101C48.6875 4.04014 48.4244 3.86406 48.1535 3.91773L48.3479 4.89866ZM54.9629 2.70654C54.6901 2.74956 54.5038 3.00555 54.5468 3.27832C54.5899 3.55109 54.8458 3.73735 55.1186 3.69434L54.9629 2.70654ZM61.9459 2.75603C62.2202 2.72389 62.4165 2.4755 62.3843 2.20124C62.3522 1.92697 62.1038 1.73069 61.8295 1.76283L61.9459 2.75603ZM68.7122 1.09629C68.4368 1.11734 68.2307 1.35761 68.2517 1.63295C68.2728 1.90829 68.513 2.11443 68.7884 2.09339L68.7122 1.09629ZM75.6645 1.71001C75.9405 1.70037 76.1564 1.46883 76.1468 1.19285C76.1371 0.916879 75.9056 0.700977 75.6296 0.710622L75.6645 1.71001ZM82.552 0.614825C82.2759 0.612769 82.0504 0.834954 82.0483 1.11109C82.0463 1.38722 82.2685 1.61274 82.5446 1.6148L82.552 0.614825ZM89.419 1.81487C89.6948 1.82893 89.9298 1.61677 89.9438 1.34098C89.9579 1.0652 89.7457 0.830231 89.4699 0.81617L89.419 1.81487ZM96.3794 1.3229C96.1046 1.29652 95.8603 1.49797 95.834 1.77285C95.8076 2.04773 96.009 2.29195 96.2839 2.31833L96.3794 1.3229ZM103.118 3.13205C103.391 3.17101 103.644 2.98097 103.683 2.70759C103.722 2.43421 103.532 2.18101 103.259 2.14205L103.118 3.13205ZM110.085 3.27831C109.814 3.22656 109.552 3.40451 109.501 3.67576C109.449 3.94701 109.627 4.20885 109.898 4.2606L110.085 3.27831ZM116.621 5.71035C116.889 5.77504 117.159 5.60985 117.224 5.3414C117.289 5.07294 117.123 4.80287 116.855 4.73818L116.621 5.71035ZM123.55 6.52504C123.285 6.44732 123.007 6.59912 122.929 6.8641C122.852 7.12908 123.003 7.40689 123.268 7.48461L123.55 6.52504ZM129.824 9.58455C130.085 9.67529 130.37 9.53742 130.46 9.27661C130.551 9.0158 130.413 8.73082 130.152 8.64008L129.824 9.58455ZM136.631 11.0765C136.375 10.9729 136.084 11.0964 135.98 11.3524C135.876 11.6083 136 11.8998 136.256 12.0034L136.631 11.0765ZM142.56 14.7407C142.81 14.857 143.108 14.7482 143.224 14.4978C143.34 14.2473 143.231 13.95 142.981 13.8337L142.56 14.7407ZM149.187 16.9054C148.942 16.7767 148.64 16.8706 148.511 17.1149C148.383 17.3593 148.477 17.6616 148.721 17.7903L149.187 16.9054ZM6.2413 19.438C7.18981 18.9153 8.1977 18.3842 9.26239 17.848L8.81259 16.9549C7.73747 17.4964 6.71861 18.0332 5.7587 18.5621L6.2413 19.438ZM15.4887 14.9486C17.4888 14.0851 19.6198 13.2242 21.8712 12.3794L21.5199 11.4431C19.2536 12.2935 17.1076 13.1604 15.0924 14.0305L15.4887 14.9486ZM28.3703 10.1031C30.4898 9.41149 32.691 8.74102 34.9674 8.10019L34.6964 7.13761C32.4068 7.78216 30.1925 8.45661 28.0601 9.15239L28.3703 10.1031ZM41.6156 6.37032C43.8048 5.84655 46.0505 5.35387 48.3479 4.89866L48.1535 3.91773C45.8431 4.37552 43.5846 4.87101 41.3829 5.39777L41.6156 6.37032ZM55.1186 3.69434C57.355 3.34169 59.6321 3.02719 61.9459 2.75603L61.8295 1.76283C59.5023 2.03556 57.212 2.35188 54.9629 2.70654L55.1186 3.69434ZM68.7884 2.09339C71.0521 1.92035 73.3453 1.79107 75.6645 1.71001L75.6296 0.710622C73.2963 0.792169 70.9893 0.922231 68.7122 1.09629L68.7884 2.09339ZM82.5446 1.6148C84.8163 1.63171 87.1088 1.69708 89.419 1.81487L89.4699 0.81617C87.145 0.697623 84.838 0.63184 82.552 0.614825L82.5446 1.6148ZM96.2839 2.31833C98.5492 2.5357 100.828 2.80575 103.118 3.13205L103.259 2.14205C100.954 1.81355 98.6596 1.5417 96.3794 1.3229L96.2839 2.31833ZM109.898 4.2606C112.132 4.68678 114.374 5.16895 116.621 5.71035L116.855 4.73818C114.592 4.19296 112.335 3.70743 110.085 3.27831L109.898 4.2606ZM123.268 7.48461C125.452 8.12504 127.638 8.82403 129.824 9.58455L130.152 8.64008C127.951 7.87406 125.749 7.17004 123.55 6.52504L123.268 7.48461ZM136.256 12.0034C138.36 12.8552 140.462 13.7667 142.56 14.7407L142.981 13.8337C140.868 12.8526 138.75 11.9345 136.631 11.0765L136.256 12.0034ZM148.721 17.7903C149.734 18.3236 150.746 18.8723 151.756 19.4366L152.244 18.5636C151.226 17.9952 150.207 17.4426 149.187 16.9054L148.721 17.7903Z" fill="#709DCA"/>
<path d="M4.63397 15.5C5.01887 14.8333 5.98113 14.8333 6.36603 15.5L9.39711 20.75C9.78201 21.4167 9.30089 22.25 8.53109 22.25H2.46891C1.69911 22.25 1.21799 21.4167 1.60289 20.75L4.63397 15.5Z" fill="#709DCA"/>
<path d="M152.634 15.5C153.019 14.8333 153.981 14.8333 154.366 15.5L157.397 20.75C157.782 21.4167 157.301 22.25 156.531 22.25H150.469C149.699 22.25 149.218 21.4167 149.603 20.75L152.634 15.5Z" fill="#709DCA"/>
</svg>
