<svg width="84" height="76" viewBox="0 0 84 76" fill="none" xmlns="http://www.w3.org/2000/svg">
<path d="M1.5 24.8572C1.5 19.8866 5.52944 15.8572 10.5 15.8572H14.6833C17.6925 15.8572 20.5026 14.3533 22.1718 11.8495L25.8282 6.36487C27.4974 3.86109 30.3075 2.35718 33.3167 2.35718H50.6833C53.6925 2.35718 56.5026 3.86109 58.1718 6.36488L61.8282 11.8495C63.4974 14.3533 66.3075 15.8572 69.3167 15.8572H73.5C78.4706 15.8572 82.5 19.8866 82.5 24.8572V65.3572C82.5 70.3277 78.4706 74.3572 73.5 74.3572H10.5C5.52944 74.3572 1.5 70.3277 1.5 65.3572V24.8572Z" stroke="#709DCA" stroke-width="3" stroke-linecap="round" stroke-linejoin="round"/>
<path d="M55.5 42.8572C55.5 50.313 49.4558 56.3572 42 56.3572C34.5442 56.3572 28.5 50.313 28.5 42.8572C28.5 35.4013 34.5442 29.3572 42 29.3572C49.4558 29.3572 55.5 35.4013 55.5 42.8572Z" stroke="#709DCA" stroke-width="3" stroke-linecap="round" stroke-linejoin="round"/>
</svg>
