<svg width="44" height="40" viewBox="0 0 44 40" fill="none" xmlns="http://www.w3.org/2000/svg">
<path d="M1 12.6667C1 10.0893 3.08934 8 5.66667 8H7.83581C9.39612 8 10.8532 7.22019 11.7187 5.92193L13.6146 3.07806C14.4801 1.7798 15.9372 1 17.4975 1H26.5025C28.0628 1 29.5199 1.77981 30.3854 3.07807L32.2813 5.92193C33.1468 7.22019 34.6039 8 36.1642 8H38.3333C40.9107 8 43 10.0893 43 12.6667V33.6667C43 36.244 40.9107 38.3333 38.3333 38.3333H5.66667C3.08934 38.3333 1 36.244 1 33.6667V12.6667Z" stroke="#709DCA" stroke-width="2" stroke-linecap="round" stroke-linejoin="round"/>
<path d="M29 22C29 25.866 25.866 29 22 29C18.134 29 15 25.866 15 22C15 18.134 18.134 15 22 15C25.866 15 29 18.134 29 22Z" stroke="#709DCA" stroke-width="2" stroke-linecap="round" stroke-linejoin="round"/>
</svg>
