<svg width="56" height="56" viewBox="0 0 56 56" fill="none" xmlns="http://www.w3.org/2000/svg">
<path d="M28 18.6667V49M28 18.6667C28 18.6667 28 15.1835 28 14C28 11.4227 30.0893 9.33333 32.6667 9.33333C35.244 9.33333 37.3333 11.4227 37.3333 14C37.3333 16.5773 35.244 18.6667 32.6667 18.6667C31.2729 18.6667 28 18.6667 28 18.6667ZM28 18.6667C28 18.6667 28 14.1468 28 12.8333C28 9.61167 25.3883 7 22.1667 7C18.945 7 16.3333 9.61167 16.3333 12.8333C16.3333 16.055 18.945 18.6667 22.1667 18.6667C24.0749 18.6667 28 18.6667 28 18.6667ZM11.6667 28H44.3333M11.6667 28C9.08934 28 7 25.9107 7 23.3333C7 20.756 9.08934 18.6667 11.6667 18.6667H44.3333C46.9107 18.6667 49 20.756 49 23.3333C49 25.9107 46.9107 28 44.3333 28M11.6667 28L11.6667 44.3333C11.6667 46.9107 13.756 49 16.3333 49H39.6667C42.244 49 44.3333 46.9107 44.3333 44.3333V28" stroke="#709DCA" stroke-width="2" stroke-linecap="round" stroke-linejoin="round"/>
</svg>
