<svg width="56" height="56" viewBox="0 0 56 56" fill="none" xmlns="http://www.w3.org/2000/svg">
<path d="M25.6667 9.33338C25.6667 6.75606 27.756 4.66672 30.3334 4.66672C32.9107 4.66672 35 6.75606 35 9.33338V11.6667C35 12.9554 36.0447 14.0001 37.3334 14.0001H44.3334C45.622 14.0001 46.6667 15.0447 46.6667 16.3334V23.3334C46.6667 24.622 45.622 25.6667 44.3334 25.6667H42C39.4227 25.6667 37.3334 27.7561 37.3334 30.3334C37.3334 32.9107 39.4227 35 42 35H44.3334C45.622 35 46.6667 36.0447 46.6667 37.3334V44.3334C46.6667 45.622 45.622 46.6667 44.3334 46.6667H37.3334C36.0447 46.6667 35 45.622 35 44.3334V42C35 39.4227 32.9107 37.3334 30.3334 37.3334C27.756 37.3334 25.6667 39.4227 25.6667 42V44.3334C25.6667 45.622 24.622 46.6667 23.3334 46.6667H16.3334C15.0447 46.6667 14 45.622 14 44.3334V37.3334C14 36.0447 12.9554 35 11.6667 35H9.33335C6.75602 35 4.66669 32.9107 4.66669 30.3334C4.66669 27.7561 6.75602 25.6667 9.33335 25.6667H11.6667C12.9554 25.6667 14 24.622 14 23.3334V16.3334C14 15.0447 15.0447 14.0001 16.3334 14.0001H23.3334C24.622 14.0001 25.6667 12.9554 25.6667 11.6667V9.33338Z" stroke="#709DCA" stroke-width="2" stroke-linecap="round" stroke-linejoin="round"/>
</svg>
