<svg width="159" height="25" viewBox="0 0 159 25" fill="none" xmlns="http://www.w3.org/2000/svg">
<path d="M149.738 7.15197C149.491 7.27617 149.392 7.5768 149.516 7.82343C149.64 8.07006 149.941 8.1693 150.187 8.0451L149.738 7.15197ZM143.908 10.9695C144.161 10.86 144.278 10.5658 144.168 10.3122C144.059 10.0587 143.765 9.94194 143.511 10.0514L143.908 10.9695ZM137.129 12.6206C136.87 12.7177 136.739 13.0059 136.836 13.2644C136.933 13.523 137.222 13.6539 137.48 13.5569L137.129 12.6206ZM130.94 15.8476C131.202 15.762 131.346 15.4797 131.26 15.2172C131.174 14.9547 130.892 14.8113 130.63 14.8969L130.94 15.8476ZM124.033 16.8998C123.767 16.9746 123.612 17.2508 123.687 17.5166C123.762 17.7824 124.038 17.9372 124.304 17.8624L124.033 16.8998ZM117.617 19.6022C117.886 19.538 118.051 19.2682 117.987 18.9996C117.923 18.7311 117.653 18.5654 117.384 18.6297L117.617 19.6022ZM110.652 20.1013C110.381 20.155 110.205 20.4181 110.259 20.689C110.313 20.9599 110.576 21.1359 110.847 21.0823L110.652 20.1013ZM104.037 22.2935C104.31 22.2504 104.496 21.9945 104.453 21.7217C104.41 21.4489 104.154 21.2627 103.881 21.3057L104.037 22.2935ZM97.0541 22.244C96.7798 22.2761 96.5835 22.5245 96.6157 22.7988C96.6478 23.073 96.8962 23.2693 97.1705 23.2372L97.0541 22.244ZM90.2878 23.9037C90.5632 23.8827 90.7693 23.6424 90.7483 23.3671C90.7272 23.0917 90.487 22.8856 90.2116 22.9066L90.2878 23.9037ZM83.3355 23.29C83.0595 23.2996 82.8436 23.5312 82.8532 23.8072C82.8629 24.0831 83.0944 24.299 83.3704 24.2894L83.3355 23.29ZM76.448 24.3852C76.7241 24.3872 76.9496 24.1651 76.9517 23.8889C76.9537 23.6128 76.7315 23.3873 76.4554 23.3852L76.448 24.3852ZM69.581 23.1851C69.3052 23.1711 69.0702 23.3832 69.0562 23.659C69.0421 23.9348 69.2543 24.1698 69.5301 24.1838L69.581 23.1851ZM62.6206 23.6771C62.8954 23.7035 63.1397 23.502 63.166 23.2272C63.1924 22.9523 62.991 22.7081 62.7161 22.6817L62.6206 23.6771ZM55.8822 21.868C55.6088 21.829 55.3556 22.019 55.3166 22.2924C55.2777 22.5658 55.4677 22.819 55.7411 22.858L55.8822 21.868ZM48.9146 21.7217C49.1858 21.7734 49.4476 21.5955 49.4994 21.3242C49.5511 21.053 49.3732 20.7912 49.1019 20.7394L48.9146 21.7217ZM42.3793 19.2897C42.1108 19.225 41.8407 19.3902 41.776 19.6586C41.7114 19.9271 41.8765 20.1971 42.145 20.2618L42.3793 19.2897ZM35.4501 18.475C35.7151 18.5527 35.9929 18.4009 36.0706 18.1359C36.1483 17.8709 35.9965 17.5931 35.7315 17.5154L35.4501 18.475ZM29.1762 15.4155C28.9154 15.3247 28.6304 15.4626 28.5397 15.7234C28.4489 15.9842 28.5868 16.2692 28.8476 16.3599L29.1762 15.4155ZM22.3689 13.9235C22.6249 14.0271 22.9164 13.9036 23.02 13.6477C23.1236 13.3917 23.0001 13.1002 22.7442 12.9966L22.3689 13.9235ZM16.4402 10.2593C16.1897 10.143 15.8924 10.2518 15.7762 10.5023C15.6599 10.7527 15.7686 11.05 16.0191 11.1663L16.4402 10.2593ZM9.81326 8.09464C10.0576 8.22327 10.36 8.12945 10.4886 7.88509C10.6172 7.64073 10.5234 7.33837 10.2791 7.20975L9.81326 8.09464ZM152.759 5.56201C151.81 6.08466 150.802 6.61577 149.738 7.15197L150.187 8.0451C151.263 7.50364 152.281 6.96679 153.241 6.43785L152.759 5.56201ZM143.511 10.0514C141.511 10.9149 139.38 11.7758 137.129 12.6206L137.48 13.5569C139.746 12.7065 141.892 11.8396 143.908 10.9695L143.511 10.0514ZM130.63 14.8969C128.51 15.5885 126.309 16.259 124.033 16.8998L124.304 17.8624C126.593 17.2178 128.808 16.5434 130.94 15.8476L130.63 14.8969ZM117.384 18.6297C115.195 19.1535 112.949 19.6461 110.652 20.1013L110.847 21.0823C113.157 20.6245 115.415 20.129 117.617 19.6022L117.384 18.6297ZM103.881 21.3057C101.645 21.6583 99.3679 21.9728 97.0541 22.244L97.1705 23.2372C99.4977 22.9644 101.788 22.6481 104.037 22.2935L103.881 21.3057ZM90.2116 22.9066C87.9479 23.0797 85.6547 23.2089 83.3355 23.29L83.3704 24.2894C85.7037 24.2078 88.0107 24.0778 90.2878 23.9037L90.2116 22.9066ZM76.4554 23.3852C74.1837 23.3683 71.8912 23.3029 69.581 23.1851L69.5301 24.1838C71.855 24.3024 74.162 24.3682 76.448 24.3852L76.4554 23.3852ZM62.7161 22.6817C60.4508 22.4643 58.1719 22.1943 55.8822 21.868L55.7411 22.858C58.0463 23.1865 60.3404 23.4583 62.6206 23.6771L62.7161 22.6817ZM49.1019 20.7394C46.8678 20.3132 44.626 19.8311 42.3793 19.2897L42.145 20.2618C44.4076 20.807 46.665 21.2926 48.9146 21.7217L49.1019 20.7394ZM35.7315 17.5154C33.548 16.875 31.3622 16.176 29.1762 15.4155L28.8476 16.3599C31.0494 17.1259 33.251 17.83 35.4501 18.475L35.7315 17.5154ZM22.7442 12.9966C20.6402 12.1448 18.5381 11.2333 16.4402 10.2593L16.0191 11.1663C18.1323 12.1474 20.2496 13.0656 22.3689 13.9235L22.7442 12.9966ZM10.2791 7.20975C9.26581 6.6764 8.254 6.12773 7.24385 5.56344L6.75615 6.43646C7.77357 7.00481 8.79269 7.55744 9.81326 8.09464L10.2791 7.20975Z" fill="#709DCA"/>
<path d="M154.366 9.5C153.981 10.1667 153.019 10.1667 152.634 9.5L149.603 4.25C149.218 3.58333 149.699 2.75 150.469 2.75L156.531 2.75C157.301 2.75 157.782 3.58333 157.397 4.25L154.366 9.5Z" fill="#709DCA"/>
<path d="M6.36603 9.5C5.98113 10.1667 5.01887 10.1667 4.63397 9.5L1.60289 4.25C1.21799 3.58333 1.69911 2.75 2.46891 2.75L8.53109 2.75C9.30089 2.75 9.78201 3.58333 9.39711 4.25L6.36603 9.5Z" fill="#709DCA"/>
</svg>
