<svg width="56" height="56" viewBox="0 0 56 56" fill="none" xmlns="http://www.w3.org/2000/svg">
<path d="M7 20.6667C7 18.0893 9.08934 16 11.6667 16H13.8358C15.3961 16 16.8532 15.2202 17.7187 13.9219L19.6146 11.0781C20.4801 9.7798 21.9372 9 23.4975 9H32.5025C34.0628 9 35.5199 9.77981 36.3854 11.0781L38.2813 13.9219C39.1468 15.2202 40.6039 16 42.1642 16H44.3333C46.9107 16 49 18.0893 49 20.6667V41.6667C49 44.244 46.9107 46.3333 44.3333 46.3333H11.6667C9.08934 46.3333 7 44.244 7 41.6667V20.6667Z" stroke="#709DCA" stroke-width="2" stroke-linecap="round" stroke-linejoin="round"/>
<path d="M35 30C35 33.866 31.866 37 28 37C24.134 37 21 33.866 21 30C21 26.134 24.134 23 28 23C31.866 23 35 26.134 35 30Z" stroke="#709DCA" stroke-width="2" stroke-linecap="round" stroke-linejoin="round"/>
</svg>
