<svg width="84" height="84" viewBox="0 0 84 84" fill="none" xmlns="http://www.w3.org/2000/svg">
<path d="M82.5 42C82.5 64.3675 64.3675 82.5 42 82.5M82.5 42C82.5 19.6325 64.3675 1.5 42 1.5M82.5 42H1.5M42 82.5C19.6325 82.5 1.5 64.3675 1.5 42M42 82.5C49.4558 82.5 55.5 64.3675 55.5 42C55.5 19.6325 49.4558 1.5 42 1.5M42 82.5C34.5442 82.5 28.5 64.3675 28.5 42C28.5 19.6325 34.5442 1.5 42 1.5M1.5 42C1.5 19.6325 19.6325 1.5 42 1.5" stroke="#709DCA" stroke-width="3" stroke-linecap="round" stroke-linejoin="round"/>
</svg>
