<svg width="85" height="85" viewBox="0 0 85 85" fill="none" xmlns="http://www.w3.org/2000/svg">
<path d="M42.5001 11.0001C42.5001 6.02956 46.5295 2.00012 51.5001 2.00012C56.4707 2.00012 60.5001 6.02956 60.5001 11.0001V15.5001C60.5001 17.9854 62.5148 20.0001 65.0001 20.0001H78.5001C80.9854 20.0001 83.0001 22.0148 83.0001 24.5001V38.0001C83.0001 40.4854 80.9854 42.5001 78.5001 42.5001H74.0001C69.0295 42.5001 65.0001 46.5296 65.0001 51.5001C65.0001 56.4707 69.0295 60.5001 74.0001 60.5001H78.5001C80.9854 60.5001 83.0001 62.5148 83.0001 65.0001V78.5001C83.0001 80.9854 80.9854 83.0001 78.5001 83.0001H65.0001C62.5148 83.0001 60.5001 80.9854 60.5001 78.5001V74.0001C60.5001 69.0296 56.4707 65.0001 51.5001 65.0001C46.5295 65.0001 42.5001 69.0296 42.5001 74.0001V78.5001C42.5001 80.9854 40.4854 83.0001 38.0001 83.0001H24.5001C22.0148 83.0001 20.0001 80.9854 20.0001 78.5001V65.0001C20.0001 62.5148 17.9854 60.5001 15.5001 60.5001H11.0001C6.02953 60.5001 2.00009 56.4707 2.00009 51.5001C2.00009 46.5296 6.02953 42.5001 11.0001 42.5001H15.5001C17.9854 42.5001 20.0001 40.4854 20.0001 38.0001V24.5001C20.0001 22.0148 22.0148 20.0001 24.5001 20.0001H38.0001C40.4854 20.0001 42.5001 17.9854 42.5001 15.5001V11.0001Z" stroke="#709DCA" stroke-width="3" stroke-linecap="round" stroke-linejoin="round"/>
</svg>
