<svg width="56" height="56" viewBox="0 0 56 56" fill="none" xmlns="http://www.w3.org/2000/svg">
<path d="M27.049 2.92664C27.3483 2.00537 28.6517 2.00538 28.951 2.92664L34.0624 18.6558C34.1963 19.0678 34.5802 19.3468 35.0134 19.3468L51.5523 19.3474C52.521 19.3474 52.9237 20.587 52.1401 21.1564L38.7602 30.8782C38.4098 31.1328 38.2631 31.5842 38.397 31.9962L43.5072 47.7258C43.8065 48.6471 42.752 49.4131 41.9683 48.8438L28.5878 39.123C28.2373 38.8684 27.7627 38.8684 27.4122 39.123L14.0317 48.8438C13.248 49.4131 12.1935 48.647 12.4928 47.7258L17.603 31.9962C17.7369 31.5842 17.5902 31.1328 17.2398 30.8782L3.85992 21.1564C3.07626 20.587 3.47902 19.3474 4.4477 19.3474L20.9866 19.3468C21.4198 19.3468 21.8037 19.0678 21.9376 18.6558L27.049 2.92664Z" stroke="#709DCA" stroke-width="2"/>
</svg>
