<svg width="32" height="32" viewBox="0 0 32 32" fill="none" xmlns="http://www.w3.org/2000/svg">
<path d="M17.2321 18.332V17.774C17.2321 17.0935 16.6806 16.542 16.0006 16.542C15.3201 16.542 14.7686 17.0935 14.7686 17.774V18.332C14.7686 19.0125 15.3201 19.564 16.0006 19.564C16.6801 19.564 17.2321 19.0125 17.2321 18.332Z" fill="#F0145A"/>
<path d="M18.0769 19.0135C17.8039 19.907 16.9814 20.563 16.0004 20.563C15.0189 20.563 14.1964 19.907 13.9234 19.0135H5.43886C4.90336 19.0135 4.39736 18.889 3.94336 18.673V24.3065C3.94336 25.4065 4.84336 26.3065 5.94336 26.3065H26.0564C27.1564 26.3065 28.0564 25.4065 28.0564 24.3065V18.6735C27.6019 18.8895 27.0964 19.014 26.5609 19.014H18.0769V19.0135Z" fill="#F0145A"/>
<path d="M26.4775 8.89751H21.677C21.387 7.08451 19.8165 5.69351 17.923 5.69351H14.0765C12.183 5.69351 10.613 7.08451 10.3225 8.89751H5.52247C4.37647 8.89751 3.43896 9.79751 3.43896 10.8975V15.514C3.43896 16.6185 4.33447 17.514 5.43897 17.514H13.829C13.8575 16.9385 14.1045 16.4215 14.495 16.0475C14.507 16.036 14.521 16.027 14.5335 16.016C14.62 15.9365 14.71 15.8615 14.8085 15.7965C14.8435 15.773 14.8835 15.757 14.92 15.736C15.001 15.6895 15.081 15.641 15.1685 15.605C15.237 15.5765 15.311 15.56 15.383 15.5385C15.445 15.52 15.504 15.4955 15.5685 15.4825C15.708 15.454 15.8525 15.439 16 15.439C16.148 15.439 16.292 15.4545 16.4315 15.4825C16.4955 15.4955 16.5545 15.52 16.6165 15.5385C16.6885 15.56 16.7625 15.5765 16.831 15.6055C16.918 15.6415 16.9975 15.6895 17.0785 15.736C17.1155 15.7575 17.1555 15.7735 17.191 15.797C17.2895 15.8615 17.379 15.9365 17.4655 16.016C17.478 16.0275 17.4925 16.0365 17.5045 16.0485C17.8955 16.4225 18.142 16.9395 18.1705 17.515H26.5605C27.665 17.515 28.5605 16.6195 28.5605 15.515V10.8985C28.561 9.79751 27.6235 8.89751 26.4775 8.89751ZM12.248 8.89751C12.503 8.12701 13.2215 7.56551 14.0765 7.56551H17.923C18.778 7.56551 19.4965 8.12701 19.7515 8.89751H12.248Z" fill="#F0145A"/>
</svg>
