<svg width="78" height="31" viewBox="0 0 78 31" fill="none" xmlns="http://www.w3.org/2000/svg">
<path d="M5.17563 28.5456C5.17563 27.9899 4.98495 27.5213 4.60903 27.1345C4.23312 26.7477 3.77549 26.557 3.24158 26.557C2.7567 26.557 2.3372 26.7096 1.98308 27.0201C1.63441 27.3252 1.41649 27.6957 1.33477 28.137H0.817205V26.6387H0V30.4524H0.817205V28.8997H1.33477C1.41649 29.3628 1.63441 29.755 1.98308 30.0656C2.33176 30.3761 2.75126 30.5341 3.24158 30.5341C3.77549 30.5341 4.23312 30.3434 4.60903 29.9566C4.98495 29.5752 5.17563 29.1013 5.17563 28.5456ZM4.35842 28.5456C4.35842 28.9051 4.24946 29.2048 4.03154 29.439C3.80817 29.6787 3.54667 29.7986 3.24158 29.7986C2.93649 29.7986 2.67498 29.6787 2.45706 29.439C2.23369 29.2048 2.12473 28.9051 2.12473 28.5456C2.12473 28.186 2.23369 27.8863 2.45706 27.6466C2.67498 27.4124 2.93649 27.2925 3.24158 27.2925C3.54667 27.2925 3.80817 27.4124 4.03154 27.6466C4.24946 27.8863 4.35842 28.186 4.35842 28.5456Z" fill="white"/>
<path d="M6.4801 26.639V30.4526H7.29731V29.1995H8.08727C8.47953 29.1995 8.80641 29.0742 9.06247 28.8291C9.31853 28.5839 9.44928 28.2788 9.44928 27.9192C9.44928 27.5542 9.31853 27.2546 9.06247 27.004C8.80096 26.7588 8.47953 26.639 8.08727 26.639H6.4801ZM8.06003 27.3744C8.22347 27.3744 8.35967 27.4289 8.46863 27.5324C8.57759 27.636 8.63207 27.7667 8.63207 27.9192C8.63207 28.0718 8.57759 28.2025 8.46863 28.3061C8.35967 28.4096 8.22347 28.4641 8.06003 28.4641H7.29731V27.3744H8.06003Z" fill="white"/>
<path d="M14.1309 30.4526V26.639H13.4226L11.543 29.0633V26.639H10.7258V30.4526H11.4341L13.3136 28.0282V30.4526H14.1309Z" fill="white"/>
<path d="M15.1622 29.7171V31.2425H15.9794V30.4526H18.2676V31.2425H19.0848V29.7171H18.6217V26.639H15.9794V27.8103C15.9794 28.0663 15.9576 28.3061 15.9141 28.5294C15.8705 28.7582 15.8214 28.938 15.7724 29.0742C15.7179 29.205 15.658 29.3248 15.5872 29.4392C15.5164 29.5482 15.4728 29.619 15.4455 29.6517C15.4128 29.679 15.3965 29.7062 15.3802 29.7171H15.1622ZM16.7966 27.8103V27.3744H17.8045V29.7171H16.1974L16.2627 29.6517C16.3009 29.6081 16.3499 29.5373 16.4098 29.4338C16.4698 29.3303 16.5242 29.2104 16.5842 29.0742C16.6441 28.938 16.6931 28.7528 16.7313 28.5294C16.7748 28.3061 16.7966 28.0663 16.7966 27.8103Z" fill="white"/>
<path d="M23.6558 30.4526V26.639H22.9475L21.0679 29.0633V26.639H20.2507V30.4526H20.959L22.8385 28.0282V30.4526H23.6558Z" fill="white"/>
<path d="M25.9409 26.639H25.1237V27.8103C25.1237 28.2679 25.2435 28.622 25.4832 28.8727C25.7284 29.1287 26.0607 29.254 26.4857 29.254C26.8507 29.254 27.1503 29.1832 27.3846 29.0361V30.4526H28.2018V26.639H27.3846V28.2461L27.292 28.317C27.232 28.3605 27.1394 28.4041 27.0141 28.4532C26.8888 28.4967 26.7581 28.5185 26.6219 28.5185C26.4039 28.5185 26.2351 28.4586 26.1152 28.3387C26.0008 28.2134 25.9409 28.0391 25.9409 27.8103V26.639Z" fill="white"/>
<path d="M32.9928 26.639H32.1756V28.1644H30.5412V26.639H29.724V30.4526H30.5412V28.8999H32.1756V30.4526H32.9928V26.639Z" fill="white"/>
<path d="M36.4775 28.8454H35.5513L36.0144 27.5924L36.4775 28.8454ZM36.7499 29.5537L37.0767 30.4526H37.9484L36.4502 26.639H35.5785L34.0803 30.4526H34.952L35.2789 29.5537H36.7499Z" fill="white"/>
<path d="M41.5112 26.639H40.694V30.4526H41.5112V29.363L42.0015 28.8182L43.1183 30.4526H44.0717L42.5463 28.2189L43.9628 26.639H43.0094L41.5112 28.3006V26.639Z" fill="white"/>
<path d="M45.7307 28.5456C45.7307 28.1969 45.8505 27.8972 46.0902 27.6575C46.3245 27.4124 46.6133 27.2925 46.9565 27.2925C47.2997 27.2925 47.5885 27.4124 47.8227 27.6575C48.0624 27.8972 48.1823 28.1969 48.1823 28.5456C48.1823 28.8997 48.0624 29.1939 47.8227 29.4336C47.5885 29.6788 47.2997 29.7986 46.9565 29.7986C46.6133 29.7986 46.3245 29.6788 46.0902 29.4336C45.8505 29.1939 45.7307 28.8997 45.7307 28.5456ZM44.8862 28.5456C44.8862 29.0904 45.0878 29.5643 45.4855 29.9512C45.8832 30.338 46.3735 30.5341 46.9565 30.5341C47.5394 30.5341 48.0297 30.338 48.4275 29.9512C48.8252 29.5643 49.0267 29.0904 49.0267 28.5456C49.0267 27.9953 48.8252 27.5268 48.4275 27.14C48.0297 26.7532 47.5394 26.557 46.9565 26.557C46.3735 26.557 45.8832 26.7532 45.4855 27.14C45.0878 27.5268 44.8862 27.9953 44.8862 28.5456Z" fill="white"/>
<path d="M52.3742 28.3006L51.0667 26.639H50.3312V30.4526H51.1484V27.9192L52.3742 29.4719L53.6 27.9084V30.4526H54.4172V26.639H53.6926L52.3742 28.3006Z" fill="white"/>
<path d="M59.1797 26.639H55.9381V30.4526H56.7553V27.3744H58.3625V30.4526H59.1797V26.639Z" fill="white"/>
<path d="M62.665 28.8454H61.7388L62.2019 27.5924L62.665 28.8454ZM62.9374 29.5537L63.2642 30.4526H64.1359L62.6377 26.639H61.766L60.2678 30.4526H61.1395L61.4664 29.5537H62.9374Z" fill="white"/>
<path d="M68.4916 26.639H67.6744V28.1644H66.04V26.639H65.2228V30.4526H66.04V28.8999H67.6744V30.4526H68.4916V26.639Z" fill="white"/>
<path d="M70.831 26.639H70.0138V30.4526H70.831V26.639Z" fill="white"/>
<path d="M75.1863 26.639H73.4974C73.1161 26.639 72.8055 26.7588 72.5604 26.9985C72.3152 27.2382 72.1899 27.5379 72.1899 27.892C72.1899 28.0446 72.2172 28.1862 72.2607 28.3224C72.3098 28.4586 72.3642 28.5621 72.4296 28.6384C72.4896 28.7147 72.5549 28.7855 72.6367 28.8509C72.7129 28.9162 72.7674 28.9598 72.8001 28.9762C72.8273 28.9871 72.8546 29.0034 72.8709 29.0089L72.0537 30.4526H72.9254L73.6609 29.1178H74.3691V30.4526H75.1863V26.639ZM73.0071 27.892C73.0071 27.7395 73.0561 27.6196 73.1542 27.5215C73.2523 27.4235 73.3776 27.3744 73.5247 27.3744H74.3691V28.3823H73.5247C73.3776 28.3823 73.2523 28.3333 73.1542 28.2407C73.0561 28.1481 73.0071 28.0282 73.0071 27.892Z" fill="white"/>
<path d="M2.49057 7.62939e-05H0V17.9875H2.49057V11.3144C2.49057 10.1854 2.77137 9.29485 3.33296 8.66767C3.89456 8.04049 4.66371 7.71436 5.61598 7.71436C6.43396 7.71436 7.11765 8.01541 7.66704 8.59241C8.21643 9.18196 8.49722 9.92203 8.49722 10.8126V18.0001H11V10.8126C11 9.15687 10.5483 7.85234 9.64484 6.87394C8.7414 5.89555 7.55716 5.40635 6.11654 5.40635C5.70144 5.40635 5.28635 5.45652 4.88346 5.56941C4.46837 5.68231 4.13873 5.80774 3.87014 5.94572C3.60155 6.0837 3.34517 6.23422 3.11321 6.40983C2.88124 6.58544 2.72253 6.71088 2.64928 6.78614C2.57603 6.8614 2.51498 6.91157 2.49057 6.9492V7.62939e-05Z" fill="#F0145A"/>
<path d="M16.5675 0H14V17.9725H16.5675V0Z" fill="white"/>
<path d="M31.7111 12.7089L31.8395 11.4252C31.8395 9.70496 31.2747 8.26716 30.1193 7.11178C28.9639 5.95641 27.5261 5.39156 25.8059 5.39156C24.0857 5.39156 22.5965 6.00776 21.3641 7.24016C20.1317 8.47256 19.5155 9.93604 19.5155 11.6819C19.5155 13.4792 20.1574 15.0197 21.4155 16.3034C22.6735 17.5872 24.1884 18.2291 25.9343 18.2291C26.6018 18.2291 27.218 18.1264 27.8342 17.9466C28.4504 17.7412 28.9639 17.5358 29.3234 17.3304C29.7085 17.0994 30.0936 16.8426 30.4274 16.5602C30.7612 16.2778 30.9922 16.0724 31.0949 15.944C31.1976 15.8156 31.2747 15.7386 31.326 15.6616L29.6571 13.9927L29.272 14.4805C29.0153 14.7886 28.5788 15.0967 27.9626 15.4305C27.3207 15.7643 26.6532 15.9183 25.9343 15.9183C24.9329 15.9183 24.0857 15.6102 23.3668 14.9683C22.6479 14.3265 22.2114 13.5819 22.083 12.7089H31.7111ZM25.8059 7.57393C26.7559 7.57393 27.5261 7.85636 28.168 8.39553C28.7842 8.96038 29.1693 9.65361 29.3234 10.5266H22.1857C22.4168 9.65361 22.8276 8.96038 23.4695 8.39553C24.0857 7.85636 24.8816 7.57393 25.8059 7.57393Z" fill="white"/>
<path d="M43.6855 17.2277C43.6855 18.3574 43.3518 19.2817 42.6585 20.0006C41.991 20.6939 41.1437 21.0533 40.091 21.0533C39.6289 21.0533 39.1667 20.9763 38.7303 20.8479C38.2938 20.7195 37.96 20.5655 37.6776 20.3858C37.3952 20.206 37.1384 20.0263 36.8817 19.7952C36.6506 19.5642 36.4965 19.4101 36.4195 19.3331C36.3425 19.2561 36.2911 19.179 36.2398 19.1277L34.5709 20.7966L34.7763 21.0533C34.9047 21.233 35.1358 21.4641 35.4439 21.7209C35.752 21.9519 36.1114 22.2087 36.5222 22.4654C36.933 22.6965 37.4465 22.9019 38.0884 23.0816C38.7303 23.2614 39.3978 23.3641 40.091 23.3641C41.8369 23.3641 43.2747 22.7735 44.4815 21.5925C45.6625 20.3858 46.253 18.948 46.253 17.2021V5.64831H43.6855V6.93206L43.2491 6.54693C42.9666 6.29018 42.5302 6.03343 41.914 5.77668C41.2978 5.51993 40.6302 5.39156 39.9627 5.39156C38.3965 5.39156 37.0614 5.98208 35.906 7.18881C34.7506 8.39553 34.1858 9.83333 34.1858 11.5536C34.1858 13.2738 34.7506 14.7116 35.906 15.9183C37.0614 17.125 38.3965 17.7156 39.9627 17.7156C40.3991 17.7156 40.8099 17.6642 41.2464 17.5615C41.6572 17.4331 41.991 17.3048 42.2734 17.1764C42.5558 17.048 42.8126 16.894 43.0437 16.7142C43.2747 16.5345 43.4545 16.4061 43.5058 16.3548L43.6855 16.1751V17.2277ZM36.7533 11.5536C36.7533 10.4752 37.0871 9.57658 37.7803 8.83201C38.4735 8.08743 39.2951 7.70231 40.2194 7.70231C41.1437 7.70231 41.9653 8.08743 42.6585 8.83201C43.3261 9.57658 43.6855 10.4752 43.6855 11.5536C43.6855 12.6319 43.3261 13.5305 42.6585 14.2751C41.9653 15.0197 41.1437 15.4048 40.2194 15.4048C39.2951 15.4048 38.4735 15.0197 37.7803 14.2751C37.0871 13.5305 36.7533 12.6319 36.7533 11.5536Z" fill="white"/>
<path d="M59.6544 17.9723V10.0131C59.6544 8.70363 59.1666 7.59961 58.2166 6.72666C57.2666 5.82803 56.0342 5.39156 54.5194 5.39156C53.9289 5.39156 53.3383 5.46858 52.7735 5.62263C52.2086 5.80236 51.7465 5.98208 51.4127 6.18748C51.0789 6.39288 50.7452 6.62396 50.4371 6.90638C50.129 7.16313 49.9492 7.34286 49.8465 7.44556C49.7695 7.54826 49.6925 7.62528 49.6411 7.70231L51.31 9.37118L51.6438 8.93471C51.8492 8.65228 52.2086 8.39553 52.7478 8.11311C53.287 7.83068 53.8775 7.70231 54.5194 7.70231C55.264 7.70231 55.8802 7.93338 56.368 8.36986C56.8558 8.80633 57.0869 9.37119 57.0869 10.0131L52.5938 10.7833C51.4897 10.963 50.5911 11.3995 49.9749 12.0927C49.333 12.786 48.9993 13.6332 48.9993 14.6346C48.9993 15.5845 49.4101 16.4061 50.2317 17.125C51.0789 17.8696 52.1059 18.2291 53.364 18.2291C53.8005 18.2291 54.2113 18.1777 54.6221 18.0493C55.0586 17.9466 55.3923 17.8183 55.6748 17.6899C55.9572 17.5615 56.214 17.4075 56.445 17.2277C56.6761 17.048 56.8302 16.9196 56.9329 16.8683C57.0099 16.7913 57.0612 16.7142 57.0869 16.6886V17.9723H59.6544ZM53.7491 15.9183C53.0816 15.9183 52.5424 15.7643 52.1573 15.4562C51.7465 15.1481 51.5668 14.7886 51.5668 14.3778C51.5668 13.9413 51.6951 13.5562 51.9776 13.2738C52.26 12.9914 52.6451 12.786 53.1073 12.7089L57.0869 12.0671V12.3238C57.0869 13.4792 56.8045 14.3521 56.214 14.994C55.6234 15.6102 54.8018 15.9183 53.7491 15.9183Z" fill="white"/>
<path d="M65.3201 -3.8147e-06H62.7526V17.9725H65.3201V-3.8147e-06Z" fill="white"/>
<path d="M76.9945 7.06043L76.8404 6.88071C76.7377 6.77801 76.5837 6.64963 76.3526 6.46991C76.1215 6.29018 75.8648 6.13613 75.5824 5.95641C75.2999 5.80236 74.9148 5.67398 74.4527 5.54561C73.9905 5.44291 73.5027 5.39156 73.0149 5.39156C71.7568 5.39156 70.7298 5.75101 69.9082 6.46991C69.0609 7.21448 68.6501 8.03608 68.6501 8.98606C68.6501 9.67929 68.8041 10.2441 69.1122 10.7576C69.4203 11.2455 69.8055 11.6049 70.2933 11.8103C70.7555 12.0414 71.269 12.2725 71.8081 12.4522C72.3473 12.6319 72.8351 12.786 73.323 12.9143C73.7851 13.0684 74.1702 13.2481 74.4783 13.4792C74.7864 13.7103 74.9405 14.0184 74.9405 14.3778C74.9405 14.84 74.7608 15.2251 74.427 15.5075C74.0932 15.7643 73.5797 15.9183 72.8865 15.9183C72.3216 15.9183 71.7568 15.7643 71.2176 15.5075C70.6784 15.2251 70.3447 14.994 70.1649 14.8143C70.0109 14.6346 69.8825 14.4805 69.8055 14.3778L68.1366 16.0467L68.3163 16.2778C68.4447 16.4318 68.6244 16.6115 68.8812 16.8169C69.1636 17.048 69.4717 17.2534 69.8055 17.4588C70.1649 17.6642 70.6271 17.8439 71.1663 17.998C71.7054 18.152 72.296 18.2291 72.8865 18.2291C74.2473 18.2291 75.377 17.8439 76.2242 17.0994C77.0715 16.3548 77.508 15.4305 77.508 14.3778C77.508 13.6846 77.3539 13.0941 77.0458 12.6319C76.7377 12.1441 76.3526 11.7846 75.8648 11.5536C75.4026 11.2968 74.8891 11.0914 74.35 10.9117C73.8108 10.732 73.323 10.5522 72.8351 10.4495C72.373 10.3212 71.9879 10.1158 71.6798 9.88469C71.3717 9.65361 71.2176 9.34551 71.2176 8.98606C71.2176 8.65228 71.3717 8.34418 71.7054 8.08743C72.0135 7.83068 72.45 7.70231 73.0149 7.70231C73.4257 7.70231 73.8365 7.80501 74.2216 7.98473C74.6324 8.16446 74.9148 8.31851 75.0432 8.44688C75.1716 8.57526 75.2743 8.67796 75.3256 8.72931L76.9945 7.06043Z" fill="white"/>
</svg>
