<svg width="156" height="63" viewBox="0 0 156 63" fill="none" xmlns="http://www.w3.org/2000/svg">
<path d="M10.3513 57.0913C10.3513 55.9799 9.9699 55.0429 9.21807 54.2692C8.46624 53.4956 7.55097 53.1143 6.48316 53.1143C5.51341 53.1143 4.67441 53.4193 3.96617 54.0404C3.26882 54.6506 2.83298 55.3915 2.66953 56.2741H1.63441V53.2777H0V60.9049H1.63441V57.7996H2.66953C2.83298 58.7257 3.26882 59.5102 3.96617 60.1313C4.66351 60.7524 5.50251 61.0684 6.48316 61.0684C7.55097 61.0684 8.46624 60.687 9.21807 59.9134C9.9699 59.1507 10.3513 58.2027 10.3513 57.0913ZM8.71685 57.0913C8.71685 57.8105 8.49893 58.4097 8.06309 58.8783C7.61635 59.3577 7.09334 59.5974 6.48316 59.5974C5.87298 59.5974 5.34997 59.3577 4.91412 58.8783C4.46738 58.4097 4.24946 57.8105 4.24946 57.0913C4.24946 56.3722 4.46738 55.7729 4.91412 55.2935C5.34997 54.8249 5.87298 54.5852 6.48316 54.5852C7.09334 54.5852 7.61635 54.8249 8.06309 55.2935C8.49893 55.7729 8.71685 56.3722 8.71685 57.0913Z" fill="#46466E"/>
<path d="M12.9603 53.2783V60.9056H14.5947V58.3995H16.1746C16.9591 58.3995 17.6129 58.1489 18.125 57.6585C18.6371 57.1682 18.8986 56.558 18.8986 55.8389C18.8986 55.1089 18.6371 54.5096 18.125 54.0084C17.602 53.518 16.9591 53.2783 16.1746 53.2783H12.9603ZM16.1201 54.7493C16.447 54.7493 16.7194 54.8582 16.9373 55.0653C17.1553 55.2723 17.2642 55.5338 17.2642 55.8389C17.2642 56.144 17.1553 56.4055 16.9373 56.6125C16.7194 56.8195 16.447 56.9285 16.1201 56.9285H14.5947V54.7493H16.1201Z" fill="#46466E"/>
<path d="M28.2618 60.9056V53.2783H26.8453L23.0862 58.1271V53.2783H21.4518V60.9056H22.8683L26.6274 56.0568V60.9056H28.2618Z" fill="#46466E"/>
<path d="M30.3245 59.4346V62.4855H31.959V60.9056H36.5353V62.4855H38.1697V59.4346H37.2435V53.2783H31.959V55.621C31.959 56.1331 31.9154 56.6125 31.8282 57.0593C31.741 57.5169 31.643 57.8765 31.5449 58.1489C31.4359 58.4104 31.3161 58.6501 31.1744 58.8789C31.0328 59.0968 30.9456 59.2385 30.8911 59.3038C30.8258 59.3583 30.7931 59.4128 30.7604 59.4346H30.3245ZM33.5934 55.621V54.7493H35.6091V59.4346H32.3948L32.5256 59.3038C32.6018 59.2167 32.6999 59.075 32.8197 58.868C32.9396 58.661 33.0486 58.4213 33.1684 58.1489C33.2883 57.8765 33.3863 57.506 33.4626 57.0593C33.5498 56.6125 33.5934 56.1331 33.5934 55.621Z" fill="#46466E"/>
<path d="M47.3114 60.9056V53.2783H45.8949L42.1358 58.1271V53.2783H40.5014V60.9056H41.9178L45.677 56.0568V60.9056H47.3114Z" fill="#46466E"/>
<path d="M51.8817 53.2783H50.2473V55.621C50.2473 56.5362 50.487 57.2445 50.9665 57.7457C51.4568 58.2578 52.1214 58.5084 52.9713 58.5084C53.7014 58.5084 54.3007 58.3668 54.7692 58.0726V60.9056H56.4036V53.2783H54.7692V56.4927L54.5839 56.6343C54.4641 56.7215 54.2789 56.8086 54.0282 56.9067C53.7776 56.9939 53.5161 57.0375 53.2437 57.0375C52.8079 57.0375 52.4701 56.9176 52.2304 56.6779C52.0016 56.4273 51.8817 56.0786 51.8817 55.621V53.2783Z" fill="#46466E"/>
<path d="M65.9856 53.2783H64.3512V56.3292H61.0824V53.2783H59.448V60.9056H61.0824V57.8002H64.3512V60.9056H65.9856V53.2783Z" fill="#46466E"/>
<path d="M72.9549 57.6912H71.1026L72.0287 55.1851L72.9549 57.6912ZM73.4997 59.1077L74.1535 60.9056H75.8969L72.9004 53.2783H71.1571L68.1606 60.9056H69.904L70.5578 59.1077H73.4997Z" fill="#46466E"/>
<path d="M83.0222 53.2783H81.3878V60.9056H83.0222V58.7263L84.0029 57.6367L86.2366 60.9056H88.1434L85.0925 56.4382L87.9255 53.2783H86.0187L83.0222 56.6016V53.2783Z" fill="#46466E"/>
<path d="M91.4614 57.0913C91.4614 56.394 91.7012 55.7947 92.1806 55.3153C92.6491 54.8249 93.2266 54.5852 93.9131 54.5852C94.5995 54.5852 95.177 54.8249 95.6455 55.3153C96.125 55.7947 96.3647 56.394 96.3647 57.0913C96.3647 57.7996 96.125 58.388 95.6455 58.8674C95.177 59.3577 94.5995 59.5974 93.9131 59.5974C93.2266 59.5974 92.6491 59.3577 92.1806 58.8674C91.7012 58.388 91.4614 57.7996 91.4614 57.0913ZM89.7726 57.0913C89.7726 58.1809 90.1757 59.1289 90.9711 59.9025C91.7665 60.6761 92.7472 61.0684 93.9131 61.0684C95.0789 61.0684 96.0596 60.6761 96.855 59.9025C97.6504 59.1289 98.0536 58.1809 98.0536 57.0913C98.0536 55.9908 97.6504 55.0538 96.855 54.2801C96.0596 53.5065 95.0789 53.1143 93.9131 53.1143C92.7472 53.1143 91.7665 53.5065 90.9711 54.2801C90.1757 55.0538 89.7726 55.9908 89.7726 57.0913Z" fill="#46466E"/>
<path d="M104.748 56.6016L102.133 53.2783H100.662V60.9056H102.297V55.8389L104.748 58.9443L107.2 55.8171V60.9056H108.834V53.2783H107.385L104.748 56.6016Z" fill="#46466E"/>
<path d="M118.359 53.2783H111.876V60.9056H113.511V54.7493H116.725V60.9056H118.359V53.2783Z" fill="#46466E"/>
<path d="M125.33 57.6912H123.477L124.404 55.1851L125.33 57.6912ZM125.875 59.1077L126.528 60.9056H128.272L125.275 53.2783H123.532L120.536 60.9056H122.279L122.933 59.1077H125.875Z" fill="#46466E"/>
<path d="M136.983 53.2783H135.349V56.3292H132.08V53.2783H130.445V60.9056H132.08V57.8002H135.349V60.9056H136.983V53.2783Z" fill="#46466E"/>
<path d="M141.662 53.2783H140.027V60.9056H141.662V53.2783Z" fill="#46466E"/>
<path d="M150.373 53.2783H146.995C146.232 53.2783 145.611 53.518 145.121 53.9975C144.63 54.4769 144.38 55.0762 144.38 55.7844C144.38 56.0895 144.434 56.3728 144.521 56.6452C144.619 56.9176 144.728 57.1246 144.859 57.2772C144.979 57.4297 145.11 57.5714 145.273 57.7021C145.426 57.8329 145.535 57.92 145.6 57.9527C145.655 57.9745 145.709 58.0072 145.742 58.0181L144.107 60.9056H145.851L147.322 58.236H148.738V60.9056H150.373V53.2783ZM146.014 55.7844C146.014 55.4793 146.112 55.2396 146.308 55.0435C146.504 54.8474 146.755 54.7493 147.049 54.7493H148.738V56.7651H147.049C146.755 56.7651 146.504 56.667 146.308 56.4818C146.112 56.2965 146.014 56.0568 146.014 55.7844Z" fill="#46466E"/>
<path d="M4.98113 0H0V35.9749H4.98113V22.6286C4.98113 20.3707 5.54273 18.5895 6.66593 17.3352C7.78912 16.0808 9.32741 15.4286 11.232 15.4286C12.8679 15.4286 14.2353 16.0307 15.3341 17.1847C16.4329 18.3638 16.9944 19.8439 16.9944 21.6251V36H22V21.6251C22 18.3136 21.0966 15.7045 19.2897 13.7477C17.4828 11.7909 15.1143 10.8125 12.2331 10.8125C11.4029 10.8125 10.5727 10.9129 9.76693 11.1387C8.93674 11.3645 8.27747 11.6153 7.74029 11.8913C7.20311 12.1672 6.69034 12.4683 6.22642 12.8195C5.76249 13.1707 5.44506 13.4216 5.29856 13.5721C5.15205 13.7226 5.02997 13.823 4.98113 13.8983V0Z" fill="#F0145A"/>
<path d="M33.135 0H28V35.945H33.135V0Z" fill="#323264"/>
<path d="M63.4222 25.4177L63.6789 22.8502C63.6789 19.4098 62.5492 16.5342 60.2385 14.2234C57.9277 11.9127 55.0521 10.783 51.6117 10.783C48.1712 10.783 45.1929 12.0154 42.7281 14.4802C40.2633 16.945 39.0309 19.8719 39.0309 23.3637C39.0309 26.9582 40.3147 30.0392 42.8308 32.6067C45.347 35.1742 48.3766 36.458 51.8684 36.458C53.2035 36.458 54.4359 36.2526 55.6683 35.8931C56.9007 35.4823 57.9277 35.0715 58.6466 34.6607C59.4169 34.1986 60.1871 33.6851 60.8547 33.1202C61.5222 32.5554 61.9844 32.1446 62.1898 31.8878C62.3952 31.6311 62.5492 31.477 62.6519 31.323L59.3142 27.9852L58.5439 28.9609C58.0304 29.5771 57.1575 30.1933 55.9251 30.8608C54.6413 31.5284 53.3062 31.8365 51.8684 31.8365C49.8658 31.8365 48.1712 31.2203 46.7334 29.9365C45.2956 28.6528 44.4227 27.1636 44.1659 25.4177H63.4222ZM51.6117 15.1477C53.5116 15.1477 55.0521 15.7126 56.3359 16.7909C57.5683 17.9206 58.3385 19.3071 58.6466 21.053H44.3713C44.8335 19.3071 45.6551 17.9206 46.9388 16.7909C48.1712 15.7126 49.7631 15.1477 51.6117 15.1477Z" fill="#323264"/>
<path d="M87.3712 34.4553C87.3712 36.7147 86.7037 38.5633 85.3172 40.0011C83.9821 41.3876 82.2876 42.1065 80.1822 42.1065C79.2579 42.1065 78.3336 41.9524 77.4607 41.6957C76.5877 41.4389 75.9202 41.1308 75.3553 40.7714C74.7905 40.4119 74.277 40.0525 73.7635 39.5903C73.3013 39.1282 72.9932 38.8201 72.8392 38.666C72.6851 38.512 72.5824 38.3579 72.4797 38.2552L69.142 41.593L69.5528 42.1065C69.8095 42.4659 70.2717 42.9281 70.8879 43.4416C71.5041 43.9037 72.223 44.4172 73.0446 44.9307C73.8662 45.3929 74.8932 45.8037 76.1769 46.1631C77.4607 46.5226 78.7958 46.728 80.1822 46.728C83.674 46.728 86.5496 45.5469 88.9631 43.1848C91.3252 40.7714 92.5062 37.8958 92.5062 34.404V11.2965H87.3712V13.864L86.4983 13.0937C85.9334 12.5802 85.0605 12.0667 83.8281 11.5532C82.5957 11.0397 81.2606 10.783 79.9255 10.783C76.7931 10.783 74.1229 11.964 71.8122 14.3775C69.5014 16.7909 68.3717 19.6665 68.3717 23.107C68.3717 26.5474 69.5014 29.423 71.8122 31.8365C74.1229 34.2499 76.7931 35.431 79.9255 35.431C80.7984 35.431 81.62 35.3283 82.493 35.1229C83.3146 34.8661 83.9821 34.6094 84.547 34.3526C85.1118 34.0959 85.6253 33.7878 86.0875 33.4283C86.5496 33.0689 86.9091 32.8121 87.0118 32.7094L87.3712 32.35V34.4553ZM73.5067 23.107C73.5067 20.9503 74.1743 19.153 75.5607 17.6639C76.9472 16.1747 78.5904 15.4045 80.439 15.4045C82.2876 15.4045 83.9308 16.1747 85.3172 17.6639C86.6523 19.153 87.3712 20.9503 87.3712 23.107C87.3712 25.2637 86.6523 27.0609 85.3172 28.5501C83.9308 30.0392 82.2876 30.8095 80.439 30.8095C78.5904 30.8095 76.9472 30.0392 75.5607 28.5501C74.1743 27.0609 73.5067 25.2637 73.5067 23.107Z" fill="#323264"/>
<path d="M119.309 35.9445V20.026C119.309 17.4071 118.333 15.1991 116.433 13.4532C114.533 11.6559 112.068 10.783 109.039 10.783C107.858 10.783 106.677 10.937 105.547 11.2451C104.417 11.6046 103.493 11.964 102.825 12.3748C102.158 12.7856 101.49 13.2478 100.874 13.8126C100.258 14.3261 99.8985 14.6856 99.6931 14.891C99.539 15.0964 99.385 15.2504 99.2823 15.4045L102.62 18.7422L103.288 17.8693C103.698 17.3044 104.417 16.7909 105.496 16.2261C106.574 15.6612 107.755 15.4045 109.039 15.4045C110.528 15.4045 111.76 15.8666 112.736 16.7396C113.712 17.6125 114.174 18.7422 114.174 20.026L105.188 21.5665C102.979 21.9259 101.182 22.7989 99.9498 24.1853C98.6661 25.5718 97.9985 27.2663 97.9985 29.269C97.9985 31.1689 98.8201 32.8121 100.463 34.2499C102.158 35.7391 104.212 36.458 106.728 36.458C107.601 36.458 108.423 36.3553 109.244 36.0985C110.117 35.8931 110.785 35.6364 111.35 35.3796C111.914 35.1229 112.428 34.8148 112.89 34.4553C113.352 34.0959 113.66 33.8391 113.866 33.7364C114.02 33.5824 114.122 33.4283 114.174 33.377V35.9445H119.309ZM107.498 31.8365C106.163 31.8365 105.085 31.5284 104.315 30.9122C103.493 30.296 103.134 29.5771 103.134 28.7555C103.134 27.8825 103.39 27.1123 103.955 26.5474C104.52 25.9826 105.29 25.5718 106.215 25.4177L114.174 24.134V24.6475C114.174 26.9582 113.609 28.7041 112.428 29.9879C111.247 31.2203 109.604 31.8365 107.498 31.8365Z" fill="#323264"/>
<path d="M130.64 0H125.505V35.945H130.64V0Z" fill="#323264"/>
<path d="M153.989 14.1207L153.681 13.7613C153.475 13.5559 153.167 13.2991 152.705 12.9397C152.243 12.5802 151.729 12.2721 151.165 11.9127C150.6 11.6046 149.829 11.3478 148.905 11.0911C147.981 10.8857 147.005 10.783 146.03 10.783C143.513 10.783 141.459 11.5019 139.816 12.9397C138.122 14.4288 137.3 16.072 137.3 17.972C137.3 19.3584 137.608 20.4881 138.224 21.5151C138.841 22.4908 139.611 23.2097 140.586 23.6205C141.511 24.0826 142.538 24.5448 143.616 24.9042C144.694 25.2637 145.67 25.5718 146.646 25.8285C147.57 26.1366 148.34 26.4961 148.957 26.9582C149.573 27.4204 149.881 28.0366 149.881 28.7555C149.881 29.6798 149.521 30.45 148.854 31.0149C148.186 31.5284 147.159 31.8365 145.773 31.8365C144.643 31.8365 143.513 31.5284 142.435 31.0149C141.357 30.45 140.689 29.9879 140.33 29.6284C140.022 29.269 139.765 28.9609 139.611 28.7555L136.273 32.0932L136.633 32.5554C136.889 32.8635 137.249 33.2229 137.762 33.6337C138.327 34.0959 138.943 34.5067 139.611 34.9175C140.33 35.3283 141.254 35.6877 142.332 35.9958C143.411 36.3039 144.592 36.458 145.773 36.458C148.494 36.458 150.754 35.6877 152.448 34.1986C154.143 32.7094 155.016 30.8608 155.016 28.7555C155.016 27.369 154.708 26.188 154.092 25.2637C153.475 24.288 152.705 23.5691 151.729 23.107C150.805 22.5935 149.778 22.1827 148.7 21.8232C147.621 21.4638 146.646 21.1043 145.67 20.8989C144.746 20.6422 143.976 20.2314 143.359 19.7692C142.743 19.3071 142.435 18.6909 142.435 17.972C142.435 17.3044 142.743 16.6882 143.411 16.1747C144.027 15.6612 144.9 15.4045 146.03 15.4045C146.851 15.4045 147.673 15.6099 148.443 15.9693C149.265 16.3288 149.829 16.6369 150.086 16.8936C150.343 17.1504 150.548 17.3558 150.651 17.4585L153.989 14.1207Z" fill="#323264"/>
</svg>
