<svg width="42" height="47" viewBox="0 0 42 47" fill="none" xmlns="http://www.w3.org/2000/svg">
<path fill-rule="evenodd" clip-rule="evenodd" d="M30.258 26.1452H18.3289L23.5851 10.1537L29.5316 10.1888L26.0787 20.7351L32.0076 20.7386L30.258 26.1452Z" fill="url(#paint0_linear)"/>
<path fill-rule="evenodd" clip-rule="evenodd" d="M5.90442 46.9044H0C0 46.9044 10.7544 13.794 13.2657 6.06476C14.4406 2.44844 17.8089 0 21.6094 0H32.165C35.3482 0 38.0049 1.34505 39.6567 3.61793C41.3073 5.89094 41.7755 8.79933 40.813 11.7664C39.8492 14.7334 38.9388 17.5342 38.1055 20.1004C36.9802 23.5654 33.8628 25.953 30.2586 26.1471C30.2586 26.1471 30.24 26.1411 35.2899 10.5924C35.7358 9.22026 35.573 7.8772 34.8726 6.91395C34.1733 5.95083 32.9934 5.3808 31.4323 5.3808H22.3744C20.5959 5.3808 19.0198 6.52656 18.4696 8.21887L5.90442 46.9044Z" fill="#F0145A"/>
<defs>
<linearGradient id="paint0_linear" x1="18.328" y1="23.0823" x2="31.6" y2="30.0167" gradientUnits="userSpaceOnUse">
<stop stop-color="#F0145A"/>
<stop offset="1" stop-color="#693264"/>
</linearGradient>
</defs>
</svg>
